<svg aria-hidden="true" style="position:absolute;width:0;height:0" xmlns="http://www.w3.org/2000/svg" overflow="hidden"><defs><symbol id="icon-circle" viewBox="0 0 32 32"><path fill="var(--color1, #00bcd4)" d="M16-.004c8.837 0 16 7.164 16 16 0 8.839-7.163 16-16 16s-16-7.161-16-16c0-8.836 7.163-16 16-16z"/></symbol><symbol id="icon-face" viewBox="0 0 32 32"><path d="M16 0C7.178 0 0 7.178 0 16s7.178 16 16 16 16-7.178 16-16S24.823 0 16 0zm3.979 16.563h-2.603v9.278h-3.857v-9.278h-1.834v-3.279h1.834v-2.121c0-1.519.722-3.893 3.893-3.893l2.858.011v3.183h-2.075c-.338 0-.818.169-.818.893v1.927h2.939l-.337 3.279z"/></symbol><symbol id="icon-dot-guarantee" viewBox="0 0 32 32"><path d="M16 0C7.178 0 0 7.178 0 16s7.178 16 16 16 16-7.178 16-16S24.823 0 16 0zm3.979 16.563h-2.603v9.278h-3.857v-9.278h-1.834v-3.279h1.834v-2.121c0-1.519.722-3.893 3.893-3.893l2.858.011v3.183h-2.075c-.338 0-.818.169-.818.893v1.927h2.939l-.337 3.279z"/></symbol><symbol id="icon-red-dot" viewBox="0 0 32 32"><path fill="var(--color2, #ff1743)" stroke="#fff" stroke-width="3.048" d="M14.73 3.555a9.144 9.144 0 1 1-.001 18.287 9.144 9.144 0 0 1 .001-18.287z"/></symbol><symbol id="icon-symbol-defs" viewBox="0 0 32 32"><path fill="var(--color1, #00bcd4)" stroke="#fff" stroke-width="3.048" d="M14.73 3.555a9.144 9.144 0 1 1-.001 18.287 9.144 9.144 0 0 1 .001-18.287z"/></symbol><symbol id="icon-symbol-defs_ellipse" viewBox="0 0 32 32"><path fill="var(--color1, #00bcd4)" stroke="#fff" stroke-width="3.048" d="M14.73 3.555a9.144 9.144 0 1 1-.001 18.287 9.144 9.144 0 0 1 .001-18.287z"/></symbol><symbol id="icon-symbol-defs-ellipse" viewBox="0 0 32 32"><path fill="var(--color1, #00bcd4)" stroke="#fff" stroke-width="3.048" d="M14.73 3.555a9.144 9.144 0 1 1-.001 18.287 9.144 9.144 0 0 1 .001-18.287z"/></symbol><symbol id="icon-twitter" viewBox="0 0 32 32"><path d="M16 0C7.164 0 0 7.164 0 16s7.164 16 16 16 16-7.164 16-16c0-8.838-7.164-16-16-16zm7.96 12.408l.012.51c0 5.208-3.962 11.208-11.208 11.208-2.224 0-4.294-.652-6.038-1.77a7.905 7.905 0 0 0 5.832-1.63 3.946 3.946 0 0 1-3.68-2.736c.242.046.486.068.742.068.36 0 .708-.046 1.038-.136a3.943 3.943 0 0 1-3.16-3.862v-.05a3.933 3.933 0 0 0 1.784.494 3.938 3.938 0 0 1-1.752-3.278c0-.722.194-1.398.532-1.98a11.18 11.18 0 0 0 8.12 4.116 3.94 3.94 0 0 1 6.714-3.592 7.977 7.977 0 0 0 2.502-.956 3.95 3.95 0 0 1-1.732 2.18 7.896 7.896 0 0 0 2.262-.62 7.962 7.962 0 0 1-1.968 2.034z"/></symbol></defs></svg>