<svg aria-hidden="true" style="position: absolute; width: 0; height: 0; overflow: hidden;" version="1.1" xmlns="http://www.w3.org/2000/svg" xmlns:xlink="http://www.w3.org/1999/xlink">
<defs>
<symbol id="icon-circle" viewBox="0 0 32 32">
<title>circle</title>
<path fill="#00bcd4" style="fill: var(--color1, #00bcd4)" d="M16-0.004c8.837 0 16 7.164 16 16 0 8.839-7.163 16-16 16s-16-7.161-16-16c0-8.836 7.163-16 16-16z"></path>
</symbol>
<symbol id="icon-face" viewBox="0 0 32 32">
<title>face</title>
<path d="M16 0c-8.822 0-16 7.178-16 16s7.178 16 16 16c8.822 0 16-7.178 16-16s-7.177-16-16-16zM19.979 16.563h-2.603c0 4.159 0 9.278 0 9.278h-3.857c0 0 0-5.070 0-9.278h-1.834v-3.279h1.834v-2.121c0-1.519 0.722-3.893 3.893-3.893l2.858 0.011v3.183c0 0-1.737 0-2.075 0s-0.818 0.169-0.818 0.893v1.927h2.939l-0.337 3.279z"></path>
</symbol>
<symbol id="icon-dot-guarantee" viewBox="0 0 32 32">
<title>icon-dot-guarantee</title>
<path d="M16 0c-8.822 0-16 7.178-16 16s7.178 16 16 16c8.822 0 16-7.178 16-16s-7.177-16-16-16zM19.979 16.563h-2.603c0 4.159 0 9.278 0 9.278h-3.857c0 0 0-5.070 0-9.278h-1.834v-3.279h1.834v-2.121c0-1.519 0.722-3.893 3.893-3.893l2.858 0.011v3.183c0 0-1.737 0-2.075 0s-0.818 0.169-0.818 0.893v1.927h2.939l-0.337 3.279z"></path>
</symbol>
<symbol id="icon-red-dot" viewBox="0 0 32 32">
<title>red-dot</title>
<path fill="#ff1743" stroke="#fff" stroke-width="3.0476" stroke-miterlimit="4" stroke-linecap="butt" stroke-linejoin="miter" style="stroke: var(--color3, #fff)" style="fill: var(--color2, #ff1743)" d="M14.73 3.555c5.050 0 9.143 4.093 9.143 9.144 0 5.048-4.093 9.143-9.143 9.143s-9.143-4.095-9.143-9.143c0-5.051 4.093-9.144 9.143-9.144z"></path>
</symbol>
<symbol id="icon-symbol-defs" viewBox="0 0 32 32">
<title>symbol-defs</title>
<path fill="#00bcd4" stroke="#fff" stroke-width="3.0476" stroke-miterlimit="4" stroke-linecap="butt" stroke-linejoin="miter" style="stroke: var(--color3, #fff)" style="fill: var(--color1, #00bcd4)" d="M14.73 3.555c5.050 0 9.143 4.093 9.143 9.144 0 5.048-4.093 9.143-9.143 9.143s-9.143-4.095-9.143-9.143c0-5.051 4.093-9.144 9.143-9.144z"></path>
</symbol>
<symbol id="icon-symbol-defs_ellipse" viewBox="0 0 32 32">
<title>symbol-defs_ellipse</title>
<path fill="#00bcd4" stroke="#fff" stroke-width="3.0476" stroke-miterlimit="4" stroke-linecap="butt" stroke-linejoin="miter" style="stroke: var(--color3, #fff)" style="fill: var(--color1, #00bcd4)" d="M14.73 3.555c5.050 0 9.143 4.093 9.143 9.144 0 5.048-4.093 9.143-9.143 9.143s-9.143-4.095-9.143-9.143c0-5.051 4.093-9.144 9.143-9.144z"></path>
</symbol>
<symbol id="icon-symbol-defs-ellipse" viewBox="0 0 32 32">
<title>symbol-defs-ellipse</title>
<path fill="#00bcd4" stroke="#fff" stroke-width="3.0476" stroke-miterlimit="4" stroke-linecap="butt" stroke-linejoin="miter" style="stroke: var(--color3, #fff)" style="fill: var(--color1, #00bcd4)" d="M14.73 3.555c5.050 0 9.143 4.093 9.143 9.144 0 5.048-4.093 9.143-9.143 9.143s-9.143-4.095-9.143-9.143c0-5.051 4.093-9.144 9.143-9.144z"></path>
</symbol>
<symbol id="icon-twitter" viewBox="0 0 32 32">
<title>twitter</title>
<path d="M16 0c-8.836 0-16 7.164-16 16s7.164 16 16 16 16-7.164 16-16c0-8.838-7.164-16-16-16zM23.96 12.408l0.012 0.51c0 5.208-3.962 11.208-11.208 11.208-2.224 0-4.294-0.652-6.038-1.77 0.308 0.036 0.622 0.056 0.94 0.056 1.846 0 3.544-0.63 4.892-1.686-1.724-0.032-3.178-1.172-3.68-2.736 0.242 0.046 0.486 0.068 0.742 0.068 0.36 0 0.708-0.046 1.038-0.136-1.802-0.364-3.16-1.954-3.16-3.862v-0.050c0.532 0.296 1.138 0.472 1.784 0.494-1.056-0.706-1.752-1.912-1.752-3.278 0-0.722 0.194-1.398 0.532-1.98 1.942 2.384 4.846 3.952 8.12 4.116-0.068-0.288-0.102-0.59-0.102-0.898 0-2.174 1.764-3.938 3.94-3.938 1.132 0 2.156 0.478 2.876 1.244 0.896-0.178 1.74-0.506 2.502-0.956-0.294 0.92-0.918 1.692-1.732 2.18 0.794-0.094 1.556-0.308 2.262-0.62-0.528 0.788-1.198 1.482-1.968 2.034z"></path>
</symbol>
</defs>
</svg>
